<svg id="visual" viewBox="0 0 900 600" width="900" height="600" xmlns="http://www.w3.org/2000/svg" xmlns:xlink="http://www.w3.org/1999/xlink" version="1.1"><rect x="0" y="0" width="900" height="600" fill="#001220"></rect><defs><linearGradient id="grad1_0" x1="33.3%" y1="100%" x2="100%" y2="0%"><stop offset="20%" stop-color="#fbae3c" stop-opacity="1"></stop><stop offset="80%" stop-color="#fbae3c" stop-opacity="1"></stop></linearGradient></defs><defs><linearGradient id="grad1_1" x1="33.3%" y1="100%" x2="100%" y2="0%"><stop offset="20%" stop-color="#fbae3c" stop-opacity="1"></stop><stop offset="80%" stop-color="#f17c53" stop-opacity="1"></stop></linearGradient></defs><defs><linearGradient id="grad1_2" x1="33.3%" y1="100%" x2="100%" y2="0%"><stop offset="20%" stop-color="#cc5867" stop-opacity="1"></stop><stop offset="80%" stop-color="#f17c53" stop-opacity="1"></stop></linearGradient></defs><defs><linearGradient id="grad1_3" x1="33.3%" y1="100%" x2="100%" y2="0%"><stop offset="20%" stop-color="#cc5867" stop-opacity="1"></stop><stop offset="80%" stop-color="#96446e" stop-opacity="1"></stop></linearGradient></defs><defs><linearGradient id="grad1_4" x1="33.3%" y1="100%" x2="100%" y2="0%"><stop offset="20%" stop-color="#593762" stop-opacity="1"></stop><stop offset="80%" stop-color="#96446e" stop-opacity="1"></stop></linearGradient></defs><defs><linearGradient id="grad1_5" x1="33.3%" y1="100%" x2="100%" y2="0%"><stop offset="20%" stop-color="#593762" stop-opacity="1"></stop><stop offset="80%" stop-color="#232745" stop-opacity="1"></stop></linearGradient></defs><defs><linearGradient id="grad1_6" x1="33.3%" y1="100%" x2="100%" y2="0%"><stop offset="20%" stop-color="#001220" stop-opacity="1"></stop><stop offset="80%" stop-color="#232745" stop-opacity="1"></stop></linearGradient></defs><defs><linearGradient id="grad2_0" x1="0%" y1="100%" x2="66.7%" y2="0%"><stop offset="20%" stop-color="#fbae3c" stop-opacity="1"></stop><stop offset="80%" stop-color="#fbae3c" stop-opacity="1"></stop></linearGradient></defs><defs><linearGradient id="grad2_1" x1="0%" y1="100%" x2="66.7%" y2="0%"><stop offset="20%" stop-color="#f17c53" stop-opacity="1"></stop><stop offset="80%" stop-color="#fbae3c" stop-opacity="1"></stop></linearGradient></defs><defs><linearGradient id="grad2_2" x1="0%" y1="100%" x2="66.7%" y2="0%"><stop offset="20%" stop-color="#f17c53" stop-opacity="1"></stop><stop offset="80%" stop-color="#cc5867" stop-opacity="1"></stop></linearGradient></defs><defs><linearGradient id="grad2_3" x1="0%" y1="100%" x2="66.7%" y2="0%"><stop offset="20%" stop-color="#96446e" stop-opacity="1"></stop><stop offset="80%" stop-color="#cc5867" stop-opacity="1"></stop></linearGradient></defs><defs><linearGradient id="grad2_4" x1="0%" y1="100%" x2="66.7%" y2="0%"><stop offset="20%" stop-color="#96446e" stop-opacity="1"></stop><stop offset="80%" stop-color="#593762" stop-opacity="1"></stop></linearGradient></defs><defs><linearGradient id="grad2_5" x1="0%" y1="100%" x2="66.7%" y2="0%"><stop offset="20%" stop-color="#232745" stop-opacity="1"></stop><stop offset="80%" stop-color="#593762" stop-opacity="1"></stop></linearGradient></defs><defs><linearGradient id="grad2_6" x1="0%" y1="100%" x2="66.7%" y2="0%"><stop offset="20%" stop-color="#232745" stop-opacity="1"></stop><stop offset="80%" stop-color="#001220" stop-opacity="1"></stop></linearGradient></defs><g transform="translate(900, 600)"><path d="M-432.7 0C-404 -19.9 -375.3 -39.7 -337.5 -48.5C-299.8 -57.3 -253 -55 -274.4 -80.6C-295.8 -106.1 -385.3 -159.5 -392.1 -179C-398.8 -198.6 -322.7 -184.2 -285.2 -183.3C-247.7 -182.3 -248.8 -194.8 -250.2 -216.8C-251.5 -238.7 -253.1 -270.2 -235.7 -272.1C-218.4 -273.9 -182 -246.1 -174.6 -271.7C-167.3 -297.4 -188.9 -376.5 -179.7 -393.6C-170.6 -410.6 -130.6 -365.5 -107.1 -364.6C-83.5 -363.7 -76.3 -406.9 -61.2 -425.6C-46.1 -444.3 -23 -438.5 0 -432.7L0 0Z" fill="#0f1d33"></path><path d="M-370.9 0C-346.3 -17 -321.7 -34.1 -289.3 -41.6C-257 -49.1 -216.9 -47.2 -235.2 -69.1C-253.5 -91 -330.3 -136.7 -336 -153.5C-341.8 -170.2 -276.6 -157.9 -244.4 -157.1C-212.3 -156.3 -213.3 -167 -214.4 -185.8C-215.6 -204.6 -217 -231.6 -202.1 -233.2C-187.2 -234.8 -156 -210.9 -149.7 -232.9C-143.4 -254.9 -161.9 -322.7 -154.1 -337.3C-146.2 -351.9 -112 -313.3 -91.8 -312.5C-71.6 -311.7 -65.4 -348.8 -52.5 -364.8C-39.5 -380.9 -19.7 -375.9 0 -370.9L0 0Z" fill="#3d3056"></path><path d="M-309 0C-288.5 -14.2 -268 -28.4 -241.1 -34.7C-214.1 -40.9 -180.7 -39.3 -196 -57.6C-211.3 -75.8 -275.2 -113.9 -280 -127.9C-284.8 -141.8 -230.5 -131.6 -203.7 -130.9C-176.9 -130.2 -177.7 -139.1 -178.7 -154.8C-179.7 -170.5 -180.8 -193 -168.4 -194.3C-156 -195.6 -130 -175.8 -124.7 -194.1C-119.5 -212.4 -134.9 -269 -128.4 -281.1C-121.8 -293.3 -93.3 -261.1 -76.5 -260.4C-59.6 -259.8 -54.5 -290.7 -43.7 -304C-32.9 -317.4 -16.5 -313.2 0 -309L0 0Z" fill="#773d6b"></path><path d="M-247.2 0C-230.8 -11.4 -214.4 -22.7 -192.9 -27.7C-171.3 -32.8 -144.6 -31.4 -156.8 -46C-169 -60.6 -220.2 -91.2 -224 -102.3C-227.9 -113.5 -184.4 -105.3 -163 -104.7C-141.5 -104.2 -142.2 -111.3 -142.9 -123.9C-143.7 -136.4 -144.6 -154.4 -134.7 -155.5C-124.8 -156.5 -104 -140.6 -99.8 -155.3C-95.6 -169.9 -107.9 -215.2 -102.7 -224.9C-97.5 -234.6 -74.6 -208.9 -61.2 -208.3C-47.7 -207.8 -43.6 -232.5 -35 -243.2C-26.3 -253.9 -13.2 -250.6 0 -247.2L0 0Z" fill="#b34c6d"></path><path d="M-185.4 0C-173.1 -8.5 -160.8 -17 -144.7 -20.8C-128.5 -24.6 -108.4 -23.6 -117.6 -34.5C-126.8 -45.5 -165.1 -68.4 -168 -76.7C-170.9 -85.1 -138.3 -79 -122.2 -78.5C-106.2 -78.1 -106.6 -83.5 -107.2 -92.9C-107.8 -102.3 -108.5 -115.8 -101 -116.6C-93.6 -117.4 -78 -105.5 -74.8 -116.5C-71.7 -127.4 -81 -161.4 -77 -168.7C-73.1 -176 -56 -156.7 -45.9 -156.3C-35.8 -155.9 -32.7 -174.4 -26.2 -182.4C-19.7 -190.4 -9.9 -187.9 0 -185.4L0 0Z" fill="#e1685e"></path><path d="M-123.6 0C-115.4 -5.7 -107.2 -11.4 -96.4 -13.9C-85.7 -16.4 -72.3 -15.7 -78.4 -23C-84.5 -30.3 -110.1 -45.6 -112 -51.2C-113.9 -56.7 -92.2 -52.6 -81.5 -52.4C-70.8 -52.1 -71.1 -55.7 -71.5 -61.9C-71.9 -68.2 -72.3 -77.2 -67.4 -77.7C-62.4 -78.3 -52 -70.3 -49.9 -77.6C-47.8 -85 -54 -107.6 -51.4 -112.4C-48.7 -117.3 -37.3 -104.4 -30.6 -104.2C-23.9 -103.9 -21.8 -116.3 -17.5 -121.6C-13.2 -127 -6.6 -125.3 0 -123.6L0 0Z" fill="#f99447"></path><path d="M-61.8 0C-57.7 -2.8 -53.6 -5.7 -48.2 -6.9C-42.8 -8.2 -36.1 -7.9 -39.2 -11.5C-42.3 -15.2 -55 -22.8 -56 -25.6C-57 -28.4 -46.1 -26.3 -40.7 -26.2C-35.4 -26 -35.5 -27.8 -35.7 -31C-35.9 -34.1 -36.2 -38.6 -33.7 -38.9C-31.2 -39.1 -26 -35.2 -24.9 -38.8C-23.9 -42.5 -27 -53.8 -25.7 -56.2C-24.4 -58.7 -18.7 -52.2 -15.3 -52.1C-11.9 -52 -10.9 -58.1 -8.7 -60.8C-6.6 -63.5 -3.3 -62.6 0 -61.8L0 0Z" fill="#fbae3c"></path></g><g transform="translate(0, 0)"><path d="M432.7 0C382.4 12.9 332.2 25.8 336.5 48.4C340.9 71 399.8 103.4 392.4 115.2C385.1 127.1 311.6 118.5 299.3 136.7C287 154.9 336 199.9 333.1 214.1C330.3 228.3 275.7 211.7 261.5 226.6C247.3 241.5 273.4 287.8 273.1 315.1C272.7 342.5 245.8 350.9 211.9 329.8C178.1 308.6 137.3 258 123 269.3C108.7 280.5 120.9 353.8 114.7 390.5C108.4 427.2 83.8 427.3 61.6 428.3C39.4 429.2 19.7 430.9 0 432.7L0 0Z" fill="#0f1d33"></path><path d="M370.9 0C327.8 11 284.7 22.1 288.5 41.5C292.2 60.9 342.7 88.6 336.4 98.8C330.1 108.9 267 101.5 256.5 117.1C246 132.7 288 171.3 285.5 183.5C283.1 195.7 236.3 181.5 224.1 194.2C211.9 207 234.4 246.7 234.1 270.1C233.7 293.6 210.7 300.8 181.7 282.7C152.6 264.5 117.6 221.1 105.4 230.8C93.1 240.5 103.6 303.3 98.3 334.7C92.9 366.2 71.8 366.3 52.8 367.1C33.8 367.9 16.9 369.4 0 370.9L0 0Z" fill="#3d3056"></path><path d="M309 0C273.2 9.2 237.3 18.4 240.4 34.6C243.5 50.7 285.5 73.8 280.3 82.3C275.1 90.8 222.5 84.6 213.8 97.6C205 110.6 240 142.8 238 152.9C235.9 163.1 196.9 151.2 186.8 161.8C176.6 172.5 195.3 205.6 195.1 225.1C194.8 244.7 175.6 250.7 151.4 235.6C127.2 220.5 98 184.3 87.8 192.3C77.6 200.4 86.4 252.7 81.9 278.9C77.5 305.1 59.8 305.2 44 305.9C28.1 306.6 14.1 307.8 0 309L0 0Z" fill="#773d6b"></path><path d="M247.2 0C218.5 7.4 189.8 14.7 192.3 27.6C194.8 40.6 228.4 59.1 224.2 65.8C220.1 72.6 178 67.7 171 78.1C164 88.5 192 114.2 190.4 122.3C188.8 130.5 157.5 121 149.4 129.5C141.3 138 156.3 164.4 156 180.1C155.8 195.7 140.5 200.5 121.1 188.4C101.8 176.4 78.4 147.4 70.3 153.9C62.1 160.3 69.1 202.2 65.5 223.2C62 244.1 47.9 244.2 35.2 244.7C22.5 245.3 11.3 246.2 0 247.2L0 0Z" fill="#b34c6d"></path><path d="M185.4 0C163.9 5.5 142.4 11 144.2 20.7C146.1 30.4 171.3 44.3 168.2 49.4C165 54.5 133.5 50.8 128.3 58.6C123 66.4 144 85.7 142.8 91.8C141.6 97.8 118.2 90.7 112.1 97.1C106 103.5 117.2 123.3 117 135.1C116.9 146.8 105.3 150.4 90.8 141.3C76.3 132.3 58.8 110.6 52.7 115.4C46.6 120.2 51.8 151.6 49.1 167.4C46.5 183.1 35.9 183.1 26.4 183.5C16.9 183.9 8.4 184.7 0 185.4L0 0Z" fill="#e1685e"></path><path d="M123.6 0C109.3 3.7 94.9 7.4 96.2 13.8C97.4 20.3 114.2 29.5 112.1 32.9C110 36.3 89 33.8 85.5 39C82 44.2 96 57.1 95.2 61.2C94.4 65.2 78.8 60.5 74.7 64.7C70.6 69 78.1 82.2 78 90C77.9 97.9 70.2 100.3 60.6 94.2C50.9 88.2 39.2 73.7 35.1 76.9C31 80.2 34.5 101.1 32.8 111.6C31 122.1 23.9 122.1 17.6 122.4C11.3 122.6 5.6 123.1 0 123.6L0 0Z" fill="#f99447"></path><path d="M61.8 0C54.6 1.8 47.5 3.7 48.1 6.9C48.7 10.1 57.1 14.8 56.1 16.5C55 18.2 44.5 16.9 42.8 19.5C41 22.1 48 28.6 47.6 30.6C47.2 32.6 39.4 30.2 37.4 32.4C35.3 34.5 39.1 41.1 39 45C39 48.9 35.1 50.1 30.3 47.1C25.4 44.1 19.6 36.9 17.6 38.5C15.5 40.1 17.3 50.5 16.4 55.8C15.5 61 12 61 8.8 61.2C5.6 61.3 2.8 61.6 0 61.8L0 0Z" fill="#fbae3c"></path></g></svg>